<?xml version="1.0" encoding="utf-8"?>
<!-- Generator: Adobe Illustrator 24.1.3, SVG Export Plug-In . SVG Version: 6.00 Build 0)  -->
<svg version="1.1"
	 id="Ebene_1" xmlns:cc="http://creativecommons.org/ns#" xmlns:dc="http://purl.org/dc/elements/1.1/" xmlns:rdf="http://www.w3.org/1999/02/22-rdf-syntax-ns#" xmlns:svg="http://www.w3.org/2000/svg"
	 xmlns="http://www.w3.org/2000/svg" xmlns:xlink="http://www.w3.org/1999/xlink" x="0px" y="0px" viewBox="0 0 609.4 609.4"
	 style="enable-background:new 0 0 609.4 609.4;" xml:space="preserve">
<style type="text/css">
	.st0{fill:#231916;}
</style>
<path class="st0" d="M183.5,18.9c-4-0.7-22-2-25.9-2c-1.3-0.1-2.5-0.1-3.8-0.1c-38.7-0.5-84,14.8-85.7,69.9v463.9l37,41.7L496,526.6
	c25.5-4.6,46-36.5,46-70.8V77.7L183.5,18.9z M227.8,88.6L488,118.9l-23.5,53.9l-202.5-30l-53,93l44,88l154.1-9h0.9l-21,50
	c-0.7,1.2-1.3,2.3-2,3.5l-166,12.5l-89-146.3L227.8,88.6z M439,465.8l-281,55l28.2-64.8l230.7-36.9l31.1-76.4l-28.4-74
	c-51.1,0-91.8-0.4-143-0.4c-0.3,0-0.6,0-0.9,0l22-50.4c0.7-1.2,1.3-2.3,2-3.5H447l51,127.3L439,465.8z"/>
</svg>
